<svg xmlns="http://www.w3.org/2000/svg" viewBox="0 0 512 512">
  <rect width="512" height="512" rx="120" fill="#fdf6e3"/>
  <!-- Shadow -->
  <ellipse cx="256" cy="460" rx="120" ry="10" fill="#00000014"/>
  <!-- Body -->
  <path d="M 180 330 Q 155 400 195 430 Q 256 450 317 428 Q 357 398 332 330 Z" fill="#fae0c0" stroke="#3a2818" stroke-width="10" stroke-linejoin="round" stroke-linecap="round"/>
  <!-- Tummy patch -->
  <ellipse cx="256" cy="385" rx="54" ry="42" fill="#fff4dc" stroke="#3a2818" stroke-width="4" stroke-dasharray="6 6"/>
  <!-- Arms -->
  <circle cx="160" cy="370" r="34" fill="#fae0c0" stroke="#3a2818" stroke-width="10"/>
  <circle cx="352" cy="370" r="34" fill="#fae0c0" stroke="#3a2818" stroke-width="10"/>
  <!-- Head -->
  <circle cx="256" cy="210" r="148" fill="#fae0c0" stroke="#3a2818" stroke-width="10"/>
  <!-- Ears -->
  <circle cx="118" cy="102" r="38" fill="#fae0c0" stroke="#3a2818" stroke-width="10"/>
  <circle cx="122" cy="106" r="18" fill="#ffc9d4"/>
  <circle cx="394" cy="94" r="44" fill="#fae0c0" stroke="#3a2818" stroke-width="10"/>
  <circle cx="390" cy="98" r="20" fill="#ffc9d4"/>
  <!-- Muzzle -->
  <ellipse cx="256" cy="248" rx="66" ry="46" fill="#fff4dc"/>
  <!-- Eyes sparkle -->
  <ellipse cx="210" cy="196" rx="15" ry="20" fill="#3a2818"/>
  <ellipse cx="302" cy="196" rx="15" ry="20" fill="#3a2818"/>
  <circle cx="216" cy="188" r="6" fill="#fff"/>
  <circle cx="308" cy="188" r="6" fill="#fff"/>
  <circle cx="207" cy="202" r="3" fill="#fff"/>
  <circle cx="299" cy="202" r="3" fill="#fff"/>
  <!-- Nose -->
  <path d="M 242 244 L 270 244 L 256 262 Z" fill="#3a2818"/>
  <!-- Smile-big -->
  <path d="M 224 274 Q 256 302 288 274" stroke="#3a2818" stroke-width="6" fill="none" stroke-linecap="round"/>
  <!-- Freckles left -->
  <circle cx="174" cy="258" r="7" fill="#ff9bb0" opacity="0.75"/>
  <circle cx="183" cy="268" r="9" fill="#ff9bb0" opacity="0.75"/>
  <circle cx="169" cy="272" r="7" fill="#ff9bb0" opacity="0.75"/>
  <!-- Freckles right -->
  <circle cx="322" cy="258" r="7" fill="#ff9bb0" opacity="0.75"/>
  <circle cx="333" cy="268" r="9" fill="#ff9bb0" opacity="0.75"/>
  <circle cx="318" cy="272" r="7" fill="#ff9bb0" opacity="0.75"/>
</svg>
